Last 16,7km.
Commentary in Spanish.
HD 720p.

 Duration: 00:36:08.00, start: 0.000000, bitrate: 1603 kb/s
    Stream #0.0(und): Video: h264 (Main), yuv420p, 1280x720 [PAR 1:1 DAR 16:9], 1500 kb/s, 24.99 fps, 25 tbr, 25 tbn, 50 tbc
    Stream #0.1(und): Audio: mp3, 44100 Hz, stereo, s16, 95 kb/s